# xmcd CD database file
#
# Track frame offsets:
#	150
#	24036
#	45098
#	67484
#	88140
#	106295
#	123633
#	139976
#	152056
#	171509
#	191479
#	213034
#
# Disc length: 3033 seconds
#
# Revision: 1
# Processed by: cddbd v1.5.2PL0 Copyright (c) Steve Scherf et al.
# Submitted via: CDex 1.51
#
DISCID=a50bd70c
DTITLE=Dixie Brothers - Gershwin Anders
DYEAR=1900
DGENRE=Jazz
TTITLE0=Nice Work If You Can Get It
TTITLE1=Oh, Lady Be Good
TTITLE2=They Can't Take That Away From Me
TTITLE3=Somebody Loves Me
TTITLE4=The Man I Love
TTITLE5=Embraceable You
TTITLE6='s Wonderful
TTITLE7=I Loves You Porgy
TTITLE8=It Ain't Necessarily So
TTITLE9=I Got Rhythm
TTITLE10=Our Love Is Here To Stay
TTITLE11=Summertime
EXTD=
EXTT0=
EXTT1=
EXTT2=
EXTT3=
EXTT4=
EXTT5=
EXTT6=
EXTT7=
EXTT8=
EXTT9=
EXTT10=
EXTT11=
PLAYORDER=
